<?xml version="1.0" encoding="UTF-8"?>
<!--Generator: Apple Native CoreSVG 123-->
<!DOCTYPE svg
PUBLIC "-//W3C//DTD SVG 1.1//EN"
       "http://www.w3.org/Graphics/SVG/1.1/DTD/svg11.dtd">
<svg version="1.1" xmlns="http://www.w3.org/2000/svg" xmlns:xlink="http://www.w3.org/1999/xlink" width="3300" height="2200">
 <!--glyph: "uni1004B3.medium", point size: 100.000000, font version: "Version 15.0d7e11", template writer version: "5"-->
 <g id="Notes">
  <rect height="2200" id="artboard" style="fill:white;opacity:1" width="3300" x="0" y="0"/>
  <line id="" style="fill:none;stroke:black;opacity:1;stroke-width:0.5;" x1="263" x2="3036" y1="292" y2="292"/>
  <text style="stroke:none;fill:black;font-family:-apple-system,&quot;SF Pro Display&quot;,&quot;SF Pro Text&quot;,Helvetica,sans-serif;font-weight:bold;" transform="matrix(1 0 0 1 263 322)">Weight/Scale Variations</text>
  <text style="stroke:none;fill:black;font-family:-apple-system,&quot;SF Pro Display&quot;,&quot;SF Pro Text&quot;,Helvetica,sans-serif;text-anchor:middle;" transform="matrix(1 0 0 1 559.711 322)">Ultralight</text>
  <text style="stroke:none;fill:black;font-family:-apple-system,&quot;SF Pro Display&quot;,&quot;SF Pro Text&quot;,Helvetica,sans-serif;text-anchor:middle;" transform="matrix(1 0 0 1 856.422 322)">Thin</text>
  <text style="stroke:none;fill:black;font-family:-apple-system,&quot;SF Pro Display&quot;,&quot;SF Pro Text&quot;,Helvetica,sans-serif;text-anchor:middle;" transform="matrix(1 0 0 1 1153.13 322)">Light</text>
  <text style="stroke:none;fill:black;font-family:-apple-system,&quot;SF Pro Display&quot;,&quot;SF Pro Text&quot;,Helvetica,sans-serif;text-anchor:middle;" transform="matrix(1 0 0 1 1449.84 322)">Regular</text>
  <text style="stroke:none;fill:black;font-family:-apple-system,&quot;SF Pro Display&quot;,&quot;SF Pro Text&quot;,Helvetica,sans-serif;text-anchor:middle;" transform="matrix(1 0 0 1 1746.56 322)">Medium</text>
  <text style="stroke:none;fill:black;font-family:-apple-system,&quot;SF Pro Display&quot;,&quot;SF Pro Text&quot;,Helvetica,sans-serif;text-anchor:middle;" transform="matrix(1 0 0 1 2043.27 322)">Semibold</text>
  <text style="stroke:none;fill:black;font-family:-apple-system,&quot;SF Pro Display&quot;,&quot;SF Pro Text&quot;,Helvetica,sans-serif;text-anchor:middle;" transform="matrix(1 0 0 1 2339.98 322)">Bold</text>
  <text style="stroke:none;fill:black;font-family:-apple-system,&quot;SF Pro Display&quot;,&quot;SF Pro Text&quot;,Helvetica,sans-serif;text-anchor:middle;" transform="matrix(1 0 0 1 2636.69 322)">Heavy</text>
  <text style="stroke:none;fill:black;font-family:-apple-system,&quot;SF Pro Display&quot;,&quot;SF Pro Text&quot;,Helvetica,sans-serif;text-anchor:middle;" transform="matrix(1 0 0 1 2933.4 322)">Black</text>
  <line id="" style="fill:none;stroke:black;opacity:1;stroke-width:0.5;" x1="263" x2="3036" y1="1903" y2="1903"/>
  <g id="" transform="matrix(1 0 0 1 263 1933)">
   <path d="M 9.24805 0.830078 C 13.5547 0.830078 17.1387 -2.74414 17.1387 -7.05078 C 17.1387 -11.3574 13.5449 -14.9316 9.23828 -14.9316 C 4.94141 -14.9316 1.36719 -11.3574 1.36719 -7.05078 C 1.36719 -2.74414 4.95117 0.830078 9.24805 0.830078 Z M 9.24805 -0.654297 C 5.70312 -0.654297 2.87109 -3.49609 2.87109 -7.05078 C 2.87109 -10.6055 5.69336 -13.4473 9.23828 -13.4473 C 12.793 -13.4473 15.6348 -10.6055 15.6445 -7.05078 C 15.6543 -3.49609 12.8027 -0.654297 9.24805 -0.654297 Z M 9.22852 -3.42773 C 9.69727 -3.42773 9.9707 -3.74023 9.9707 -4.25781 L 9.9707 -6.31836 L 12.1973 -6.31836 C 12.6953 -6.31836 13.0371 -6.57227 13.0371 -7.04102 C 13.0371 -7.51953 12.7148 -7.7832 12.1973 -7.7832 L 9.9707 -7.7832 L 9.9707 -10.0098 C 9.9707 -10.5273 9.69727 -10.8496 9.22852 -10.8496 C 8.75977 -10.8496 8.50586 -10.5078 8.50586 -10.0098 L 8.50586 -7.7832 L 6.29883 -7.7832 C 5.78125 -7.7832 5.44922 -7.51953 5.44922 -7.04102 C 5.44922 -6.57227 5.80078 -6.31836 6.29883 -6.31836 L 8.50586 -6.31836 L 8.50586 -4.25781 C 8.50586 -3.75977 8.75977 -3.42773 9.22852 -3.42773 Z"/>
  </g>
  <g id="" transform="matrix(1 0 0 1 281.506 1933)">
   <path d="M 11.709 2.91016 C 17.1582 2.91016 21.6699 -1.60156 21.6699 -7.05078 C 21.6699 -12.4902 17.1484 -17.0117 11.6992 -17.0117 C 6.25977 -17.0117 1.74805 -12.4902 1.74805 -7.05078 C 1.74805 -1.60156 6.26953 2.91016 11.709 2.91016 Z M 11.709 1.25 C 7.09961 1.25 3.41797 -2.44141 3.41797 -7.05078 C 3.41797 -11.6504 7.08984 -15.3516 11.6992 -15.3516 C 16.3086 -15.3516 20 -11.6504 20.0098 -7.05078 C 20.0195 -2.44141 16.3184 1.25 11.709 1.25 Z M 11.6895 -2.41211 C 12.207 -2.41211 12.5195 -2.77344 12.5195 -3.33984 L 12.5195 -6.23047 L 15.5762 -6.23047 C 16.123 -6.23047 16.5039 -6.51367 16.5039 -7.03125 C 16.5039 -7.55859 16.1426 -7.86133 15.5762 -7.86133 L 12.5195 -7.86133 L 12.5195 -10.9277 C 12.5195 -11.5039 12.207 -11.8555 11.6895 -11.8555 C 11.1719 -11.8555 10.8789 -11.4844 10.8789 -10.9277 L 10.8789 -7.86133 L 7.83203 -7.86133 C 7.26562 -7.86133 6.89453 -7.55859 6.89453 -7.03125 C 6.89453 -6.51367 7.28516 -6.23047 7.83203 -6.23047 L 10.8789 -6.23047 L 10.8789 -3.33984 C 10.8789 -2.79297 11.1719 -2.41211 11.6895 -2.41211 Z"/>
  </g>
  <g id="" transform="matrix(1 0 0 1 304.924 1933)">
   <path d="M 14.9707 5.67383 C 21.9336 5.67383 27.6953 -0.078125 27.6953 -7.04102 C 27.6953 -14.0039 21.9238 -19.7559 14.9609 -19.7559 C 8.00781 -19.7559 2.25586 -14.0039 2.25586 -7.04102 C 2.25586 -0.078125 8.01758 5.67383 14.9707 5.67383 Z M 14.9707 3.85742 C 8.93555 3.85742 4.08203 -1.00586 4.08203 -7.04102 C 4.08203 -13.0762 8.92578 -17.9395 14.9609 -17.9395 C 21.0059 -17.9395 25.8594 -13.0762 25.8691 -7.04102 C 25.8789 -1.00586 21.0156 3.85742 14.9707 3.85742 Z M 14.9512 -1.06445 C 15.5176 -1.06445 15.8691 -1.45508 15.8691 -2.06055 L 15.8691 -6.13281 L 20.1074 -6.13281 C 20.6934 -6.13281 21.1133 -6.46484 21.1133 -7.02148 C 21.1133 -7.59766 20.7227 -7.93945 20.1074 -7.93945 L 15.8691 -7.93945 L 15.8691 -12.1875 C 15.8691 -12.8027 15.5176 -13.1934 14.9512 -13.1934 C 14.3848 -13.1934 14.0625 -12.7832 14.0625 -12.1875 L 14.0625 -7.93945 L 9.83398 -7.93945 C 9.21875 -7.93945 8.80859 -7.59766 8.80859 -7.02148 C 8.80859 -6.46484 9.23828 -6.13281 9.83398 -6.13281 L 14.0625 -6.13281 L 14.0625 -2.06055 C 14.0625 -1.47461 14.3848 -1.06445 14.9512 -1.06445 Z"/>
  </g>
  <text style="stroke:none;fill:black;font-family:-apple-system,&quot;SF Pro Display&quot;,&quot;SF Pro Text&quot;,Helvetica,sans-serif;font-weight:bold;" transform="matrix(1 0 0 1 263 1953)">Design Variations</text>
  <text style="stroke:none;fill:black;font-family:-apple-system,&quot;SF Pro Display&quot;,&quot;SF Pro Text&quot;,Helvetica,sans-serif;" transform="matrix(1 0 0 1 263 1971)">Symbols are supported in up to nine weights and three scales.</text>
  <text style="stroke:none;fill:black;font-family:-apple-system,&quot;SF Pro Display&quot;,&quot;SF Pro Text&quot;,Helvetica,sans-serif;" transform="matrix(1 0 0 1 263 1989)">For optimal layout with text and other symbols, vertically align</text>
  <text style="stroke:none;fill:black;font-family:-apple-system,&quot;SF Pro Display&quot;,&quot;SF Pro Text&quot;,Helvetica,sans-serif;" transform="matrix(1 0 0 1 263 2007)">symbols with the adjacent text.</text>
  <rect height="14" id="" style="fill:#00AEEF;stroke:none;opacity:0.4;" width="3" x="776" y="1919"/>
  <g id="" transform="matrix(1 0 0 1 779 1933)">
   <path d="M 10.5273 0 L 12.373 0 L 7.17773 -14.0918 L 5.43945 -14.0918 L 0.244141 0 L 2.08984 0 L 3.50586 -4.0332 L 9.11133 -4.0332 Z M 6.2793 -11.9531 L 6.33789 -11.9531 L 8.59375 -5.52734 L 4.02344 -5.52734 Z"/>
  </g>
  <rect height="14" id="" style="fill:#00AEEF;stroke:none;opacity:0.4;" width="3" x="791.617" y="1919"/>
  <text style="stroke:none;fill:black;font-family:-apple-system,&quot;SF Pro Display&quot;,&quot;SF Pro Text&quot;,Helvetica,sans-serif;font-weight:bold;" transform="matrix(1 0 0 1 776 1953)">Margins</text>
  <text style="stroke:none;fill:black;font-family:-apple-system,&quot;SF Pro Display&quot;,&quot;SF Pro Text&quot;,Helvetica,sans-serif;" transform="matrix(1 0 0 1 776 1971)">Leading and trailing margins on the left and right side of each symbol</text>
  <text style="stroke:none;fill:black;font-family:-apple-system,&quot;SF Pro Display&quot;,&quot;SF Pro Text&quot;,Helvetica,sans-serif;" transform="matrix(1 0 0 1 776 1989)">can be adjusted by modifying the width of the blue rectangles.</text>
  <text style="stroke:none;fill:black;font-family:-apple-system,&quot;SF Pro Display&quot;,&quot;SF Pro Text&quot;,Helvetica,sans-serif;" transform="matrix(1 0 0 1 776 2007)">Modifications are automatically applied proportionally to all</text>
  <text style="stroke:none;fill:black;font-family:-apple-system,&quot;SF Pro Display&quot;,&quot;SF Pro Text&quot;,Helvetica,sans-serif;" transform="matrix(1 0 0 1 776 2025)">scales and weights.</text>
  <g id="" transform="matrix(1 0 0 1 1289 1933)">
   <path d="M 2.83203 3.11523 L 4.375 4.6582 C 5.22461 5.48828 6.19141 5.41992 7.06055 4.46289 L 17.2754 -6.66016 C 17.7051 -6.36719 18.0957 -6.37695 18.5645 -6.47461 L 19.6094 -6.68945 L 20.3027 -5.99609 L 20.2539 -5.47852 C 20.1855 -4.95117 20.3516 -4.53125 20.8496 -4.0332 L 21.6602 -3.22266 C 22.168 -2.71484 22.8223 -2.68555 23.3008 -3.16406 L 26.5527 -6.41602 C 27.0312 -6.89453 27.0117 -7.54883 26.5039 -8.05664 L 25.6836 -8.87695 C 25.1855 -9.375 24.7754 -9.55078 24.2383 -9.47266 L 23.7109 -9.41406 L 23.0566 -10.0781 L 23.3398 -11.2207 C 23.4863 -11.7871 23.3398 -12.2559 22.7148 -12.8613 L 20.3027 -15.2539 C 16.7578 -18.7793 12.2266 -18.6719 9.11133 -15.5371 C 8.69141 -15.1074 8.64258 -14.5215 8.91602 -14.0918 C 9.15039 -13.7207 9.62891 -13.4961 10.2734 -13.6621 C 11.7871 -14.043 13.3008 -13.9258 14.7852 -12.9199 L 14.1602 -11.3379 C 13.9258 -10.752 13.9453 -10.2734 14.1797 -9.83398 L 3.01758 0.439453 C 2.08008 1.30859 1.97266 2.25586 2.83203 3.11523 Z M 10.6738 -15.1465 C 13.3398 -17.1387 16.6504 -16.8262 19.0527 -14.4141 L 21.6797 -11.8066 C 21.9141 -11.5723 21.9434 -11.3867 21.8848 -11.0938 L 21.5039 -9.53125 L 23.0762 -7.95898 L 24.043 -8.04688 C 24.3262 -8.07617 24.4141 -8.05664 24.6387 -7.83203 L 25.2637 -7.20703 L 22.5098 -4.46289 L 21.8848 -5.07812 C 21.6602 -5.30273 21.6406 -5.40039 21.6699 -5.68359 L 21.7578 -6.64062 L 20.1953 -8.20312 L 18.5742 -7.89062 C 18.291 -7.83203 18.1445 -7.83203 17.9102 -8.07617 L 15.7324 -10.2539 C 15.5078 -10.4883 15.4785 -10.625 15.6055 -10.9473 L 16.5527 -13.2227 C 14.9512 -14.7559 12.8418 -15.6055 10.8008 -14.9512 C 10.7129 -14.9219 10.6445 -14.9414 10.6152 -14.9805 C 10.5859 -15.0293 10.5859 -15.0781 10.6738 -15.1465 Z M 4.10156 2.41211 C 3.61328 1.91406 3.78906 1.61133 4.12109 1.30859 L 15.0781 -8.80859 L 16.3086 -7.57812 L 6.15234 3.34961 C 5.84961 3.68164 5.46875 3.7793 5.06836 3.37891 Z"/>
  </g>
  <text style="stroke:none;fill:black;font-family:-apple-system,&quot;SF Pro Display&quot;,&quot;SF Pro Text&quot;,Helvetica,sans-serif;font-weight:bold;" transform="matrix(1 0 0 1 1289 1953)">Exporting</text>
  <text style="stroke:none;fill:black;font-family:-apple-system,&quot;SF Pro Display&quot;,&quot;SF Pro Text&quot;,Helvetica,sans-serif;" transform="matrix(1 0 0 1 1289 1971)">Symbols should be outlined when exporting to ensure the</text>
  <text style="stroke:none;fill:black;font-family:-apple-system,&quot;SF Pro Display&quot;,&quot;SF Pro Text&quot;,Helvetica,sans-serif;" transform="matrix(1 0 0 1 1289 1989)">design is preserved when submitting to Xcode.</text>
  <text id="template-version" style="stroke:none;fill:black;font-family:-apple-system,&quot;SF Pro Display&quot;,&quot;SF Pro Text&quot;,Helvetica,sans-serif;text-anchor:end;" transform="matrix(1 0 0 1 3036 1933)">Template v.1.0</text>
  <text style="stroke:none;fill:black;font-family:-apple-system,&quot;SF Pro Display&quot;,&quot;SF Pro Text&quot;,Helvetica,sans-serif;text-anchor:end;" transform="matrix(1 0 0 1 3036 1951)">Generated from lock.circle.fill</text>
  <text style="stroke:none;fill:black;font-family:-apple-system,&quot;SF Pro Display&quot;,&quot;SF Pro Text&quot;,Helvetica,sans-serif;text-anchor:end;" transform="matrix(1 0 0 1 3036 1969)">Typeset at 100 points</text>
  <text style="stroke:none;fill:black;font-family:-apple-system,&quot;SF Pro Display&quot;,&quot;SF Pro Text&quot;,Helvetica,sans-serif;" transform="matrix(1 0 0 1 263 726)">Small</text>
  <text style="stroke:none;fill:black;font-family:-apple-system,&quot;SF Pro Display&quot;,&quot;SF Pro Text&quot;,Helvetica,sans-serif;" transform="matrix(1 0 0 1 263 1156)">Medium</text>
  <text style="stroke:none;fill:black;font-family:-apple-system,&quot;SF Pro Display&quot;,&quot;SF Pro Text&quot;,Helvetica,sans-serif;" transform="matrix(1 0 0 1 263 1586)">Large</text>
 </g>
 <g id="Guides">
  <g id="H-reference" style="fill:#27AAE1;stroke:none;" transform="matrix(1 0 0 1 339 696)">
   <path d="M 54.9316 0 L 57.666 0 L 30.5664 -70.459 L 28.0762 -70.459 L 0.976562 0 L 3.66211 0 L 12.9395 -24.4629 L 45.7031 -24.4629 Z M 29.1992 -67.0898 L 29.4434 -67.0898 L 44.8242 -26.709 L 13.8184 -26.709 Z"/>
  </g>
  <line id="Baseline-S" style="fill:none;stroke:#27AAE1;opacity:1;stroke-width:0.577;" x1="263" x2="3036" y1="696" y2="696"/>
  <line id="Capline-S" style="fill:none;stroke:#27AAE1;opacity:1;stroke-width:0.577;" x1="263" x2="3036" y1="625.541" y2="625.541"/>
  <g id="H-reference" style="fill:#27AAE1;stroke:none;" transform="matrix(1 0 0 1 339 1126)">
   <path d="M 54.9316 0 L 57.666 0 L 30.5664 -70.459 L 28.0762 -70.459 L 0.976562 0 L 3.66211 0 L 12.9395 -24.4629 L 45.7031 -24.4629 Z M 29.1992 -67.0898 L 29.4434 -67.0898 L 44.8242 -26.709 L 13.8184 -26.709 Z"/>
  </g>
  <line id="Baseline-M" style="fill:none;stroke:#27AAE1;opacity:1;stroke-width:0.577;" x1="263" x2="3036" y1="1126" y2="1126"/>
  <line id="Capline-M" style="fill:none;stroke:#27AAE1;opacity:1;stroke-width:0.577;" x1="263" x2="3036" y1="1055.54" y2="1055.54"/>
  <g id="H-reference" style="fill:#27AAE1;stroke:none;" transform="matrix(1 0 0 1 339 1556)">
   <path d="M 54.9316 0 L 57.666 0 L 30.5664 -70.459 L 28.0762 -70.459 L 0.976562 0 L 3.66211 0 L 12.9395 -24.4629 L 45.7031 -24.4629 Z M 29.1992 -67.0898 L 29.4434 -67.0898 L 44.8242 -26.709 L 13.8184 -26.709 Z"/>
  </g>
  <line id="Baseline-L" style="fill:none;stroke:#27AAE1;opacity:1;stroke-width:0.577;" x1="263" x2="3036" y1="1556" y2="1556"/>
  <line id="Capline-L" style="fill:none;stroke:#27AAE1;opacity:1;stroke-width:0.577;" x1="263" x2="3036" y1="1485.54" y2="1485.54"/>
  <rect height="119.336" id="left-margin" style="fill:#00AEEF;stroke:none;opacity:0.4;" width="8.74023" x="1391.3" y="1030.79"/>
  <rect height="119.336" id="right-margin" style="fill:#00AEEF;stroke:none;opacity:0.4;" width="8.74023" x="1499.65" y="1030.79"/>
 </g>
 <g id="Symbols">
  <g id="Black-L" transform="matrix(1 0 0 1 2854.05 1556)">
   <path d="M 79.3457 32.9102 C 116.748 32.9102 147.412 2.29492 147.412 -35.1074 C 147.412 -72.5586 116.748 -103.174 79.2969 -103.174 C 41.8945 -103.174 11.2793 -72.5586 11.2793 -35.1074 C 11.2793 2.29492 41.9434 32.9102 79.3457 32.9102 Z M 56.8359 -12.7441 L 56.8359 -36.0352 C 56.8359 -39.9902 58.252 -42.334 61.1816 -43.2129 L 61.1816 -49.2676 C 61.1816 -61.3281 68.5547 -69.4824 79.3457 -69.4824 C 90.1855 -69.4824 97.5586 -61.3281 97.5586 -49.2676 L 97.5586 -43.1641 C 100.439 -42.334 101.855 -40.0391 101.855 -36.0352 L 101.855 -12.7441 C 101.855 -7.51953 99.5117 -5.12695 94.7266 -5.12695 L 64.0137 -5.12695 C 59.1797 -5.12695 56.8359 -7.51953 56.8359 -12.7441 Z M 71.875 -43.5547 L 86.8652 -43.5547 L 86.8652 -49.7559 C 86.8652 -55.4688 83.9844 -59.0332 79.3457 -59.0332 C 74.7559 -59.0332 71.875 -55.3711 71.875 -49.7559 Z"/>
  </g>
  <g id="Heavy-L" transform="matrix(1 0 0 1 2558.39 1556)">
   <path d="M 78.2715 31.8848 C 115.088 31.8848 145.312 1.66016 145.312 -35.1074 C 145.312 -71.9238 115.039 -102.148 78.2715 -102.148 C 41.4551 -102.148 11.2793 -71.9238 11.2793 -35.1074 C 11.2793 1.66016 41.5039 31.8848 78.2715 31.8848 Z M 55.5176 -12.3047 L 55.5176 -36.2305 C 55.5176 -40.2832 57.0312 -42.5781 60.1074 -43.3594 L 60.1074 -49.8535 C 60.1074 -62.0605 67.5781 -70.1172 78.2715 -70.1172 C 89.0625 -70.1172 96.4844 -62.0605 96.4844 -49.8535 L 96.4844 -43.3105 C 99.5605 -42.627 101.074 -40.332 101.074 -36.2305 L 101.074 -12.3047 C 101.074 -7.12891 98.7305 -4.78516 94.043 -4.78516 L 62.5977 -4.78516 C 57.8125 -4.78516 55.5176 -7.12891 55.5176 -12.3047 Z M 69.6777 -43.6035 L 86.9629 -43.6523 L 86.9629 -50.3906 C 86.9629 -56.7383 83.5449 -60.791 78.2715 -60.791 C 73.0469 -60.791 69.6777 -56.6895 69.6777 -50.3906 Z"/>
  </g>
  <g id="Bold-L" transform="matrix(1 0 0 1 2262.88 1556)">
   <path d="M 77.0996 30.7129 C 113.232 30.7129 142.92 0.976562 142.92 -35.1074 C 142.92 -71.2402 113.184 -100.977 77.0508 -100.977 C 40.9668 -100.977 11.2793 -71.2402 11.2793 -35.1074 C 11.2793 0.976562 41.0156 30.7129 77.0996 30.7129 Z M 54.0527 -11.7676 L 54.0527 -36.4746 C 54.0527 -40.625 55.6152 -42.8711 58.9355 -43.5059 L 58.9355 -50.5371 C 58.9355 -62.8418 66.4551 -70.8496 77.0996 -70.8496 C 87.7441 -70.8496 95.3125 -62.8418 95.3125 -50.5371 L 95.3125 -43.5059 C 98.584 -42.9199 100.146 -40.6738 100.146 -36.4746 L 100.146 -11.7676 C 100.146 -6.73828 97.9004 -4.44336 93.3105 -4.44336 L 60.9375 -4.44336 C 56.2988 -4.44336 54.0527 -6.73828 54.0527 -11.7676 Z M 67.1875 -43.75 L 87.0605 -43.75 L 87.0605 -51.0742 C 87.0605 -58.1543 83.1055 -62.793 77.0996 -62.793 C 71.1426 -62.793 67.1875 -58.1543 67.1875 -51.0742 Z"/>
  </g>
  <g id="Semibold-L" transform="matrix(1 0 0 1 1966.97 1556)">
   <path d="M 76.2695 29.8828 C 111.914 29.8828 141.309 0.488281 141.309 -35.1074 C 141.309 -70.752 111.865 -100.146 76.2695 -100.146 C 40.625 -100.146 11.2793 -70.752 11.2793 -35.1074 C 11.2793 0.488281 40.6738 29.8828 76.2695 29.8828 Z M 53.0273 -11.4258 L 53.0273 -36.6699 C 53.0273 -40.8691 54.6875 -43.0664 58.1055 -43.6523 L 58.1055 -51.0254 C 58.1055 -63.3789 65.7227 -71.3379 76.2695 -71.3379 C 86.8652 -71.3379 94.4824 -63.3789 94.4824 -51.0254 L 94.4824 -43.6523 C 97.9004 -43.1152 99.5117 -40.918 99.5117 -36.6699 L 99.5117 -11.4258 C 99.5117 -6.44531 97.3145 -4.19922 92.7734 -4.19922 L 59.8145 -4.19922 C 55.2734 -4.19922 53.0273 -6.44531 53.0273 -11.4258 Z M 65.4785 -43.7988 L 87.1094 -43.8477 L 87.1094 -51.5137 C 87.1094 -59.1309 82.8125 -64.1602 76.2695 -64.1602 C 69.7754 -64.1602 65.4785 -59.1309 65.4785 -51.5137 Z"/>
  </g>
  <g id="Medium-L" transform="matrix(1 0 0 1 1670.87 1556)">
   <path d="M 75.6836 29.248 C 110.938 29.248 140.088 0.146484 140.088 -35.1074 C 140.088 -70.4102 110.889 -99.5117 75.6348 -99.5117 C 40.3809 -99.5117 11.2793 -70.4102 11.2793 -35.1074 C 11.2793 0.146484 40.3809 29.248 75.6836 29.248 Z M 52.2949 -11.1328 L 52.2949 -36.7676 C 52.2949 -41.0645 53.9551 -43.2617 57.4707 -43.7012 L 57.4707 -51.3672 C 57.4707 -63.8184 65.1367 -71.7285 75.6836 -71.7285 C 86.1816 -71.7285 93.8477 -63.8184 93.8477 -51.3672 L 93.8477 -43.75 C 97.3633 -43.2617 99.0723 -41.1133 99.0723 -36.7676 L 99.0723 -11.1328 C 99.0723 -6.25 96.875 -4.00391 92.3828 -4.00391 L 58.9844 -4.00391 C 54.4434 -4.00391 52.2949 -6.25 52.2949 -11.1328 Z M 64.209 -43.8477 L 87.1582 -43.8965 L 87.1582 -51.9043 C 87.1582 -59.9121 82.5684 -65.1855 75.6836 -65.1855 C 68.7988 -65.1855 64.209 -59.9121 64.209 -51.9043 Z"/>
  </g>
  <g id="Regular-L" transform="matrix(1 0 0 1 1374.97 1556)">
   <path d="M 74.8535 28.4668 C 109.668 28.4668 138.477 -0.341797 138.477 -35.1074 C 138.477 -69.9219 109.619 -98.7305 74.8047 -98.7305 C 40.0391 -98.7305 11.2793 -69.9219 11.2793 -35.1074 C 11.2793 -0.341797 40.0879 28.4668 74.8535 28.4668 Z M 51.2695 -10.791 L 51.2695 -36.9629 C 51.2695 -41.3086 53.0273 -43.457 56.6895 -43.8477 L 56.6895 -51.8066 C 56.6895 -64.3555 64.4043 -72.2168 74.8535 -72.2168 C 85.3027 -72.2168 93.0664 -64.3555 93.0664 -51.8066 L 93.0664 -43.8965 C 96.7285 -43.5059 98.4375 -41.3574 98.4375 -36.9629 L 98.4375 -10.791 C 98.4375 -5.95703 96.3379 -3.75977 91.8457 -3.75977 L 57.8613 -3.75977 C 53.418 -3.75977 51.2695 -5.95703 51.2695 -10.791 Z M 62.5 -43.9453 L 87.207 -43.9941 L 87.207 -52.3438 C 87.207 -60.8887 82.2754 -66.5039 74.8535 -66.5039 C 67.4805 -66.5039 62.5 -60.8887 62.5 -52.3438 Z"/>
  </g>
  <g id="Light-L" transform="matrix(1 0 0 1 1079.18 1556)">
   <path d="M 73.9258 27.5879 C 108.301 27.5879 136.621 -0.732422 136.621 -35.1074 C 136.621 -69.4336 108.252 -97.7539 73.9258 -97.7539 C 39.5508 -97.7539 11.2793 -69.4336 11.2793 -35.1074 C 11.2793 -0.732422 39.5996 27.5879 73.9258 27.5879 Z M 49.3652 -9.57031 L 49.3652 -37.0605 C 49.3652 -41.6992 51.3184 -43.8965 55.3711 -44.1406 L 55.3711 -52.6855 C 55.3711 -65.5273 63.4766 -73.291 73.9258 -73.291 C 84.375 -73.291 92.5293 -65.5273 92.5293 -52.6855 L 92.5293 -44.1895 C 96.582 -43.9453 98.5352 -41.748 98.5352 -37.0605 L 98.5352 -9.57031 C 98.5352 -4.58984 96.3379 -2.34375 91.7969 -2.34375 L 56.1035 -2.34375 C 51.5625 -2.34375 49.3652 -4.58984 49.3652 -9.57031 Z M 60.2051 -44.2383 L 87.6465 -44.2383 L 87.6465 -53.0273 C 87.6465 -62.3535 82.1777 -68.5059 73.9258 -68.5059 C 65.7227 -68.5059 60.2051 -62.3535 60.2051 -53.0273 Z"/>
  </g>
  <g id="Thin-L" transform="matrix(1 0 0 1 783.693 1556)">
   <path d="M 72.7051 26.416 C 106.494 26.416 134.18 -1.26953 134.18 -35.0586 C 134.18 -68.7988 106.494 -96.4844 72.7051 -96.4844 C 38.9648 -96.4844 11.2793 -68.7988 11.2793 -35.0586 C 11.2793 -1.26953 38.9648 26.416 72.7051 26.416 Z M 46.7773 -7.86133 L 46.7773 -37.1582 C 46.7773 -42.2852 49.0234 -44.5312 53.6621 -44.5801 L 53.6621 -53.8086 C 53.6621 -67.0898 62.2559 -74.707 72.7051 -74.707 C 83.1543 -74.707 91.7969 -67.0898 91.7969 -53.8086 L 91.7969 -44.5801 C 96.3867 -44.5312 98.6816 -42.2852 98.6816 -37.1582 L 98.6816 -7.86133 C 98.6816 -2.68555 96.3379 -0.488281 91.6504 -0.488281 L 53.8086 -0.488281 C 49.0723 -0.488281 46.7773 -2.68555 46.7773 -7.86133 Z M 57.1777 -44.5801 L 88.2324 -44.5801 L 88.2324 -53.8574 C 88.2324 -64.2578 82.0312 -71.1426 72.7051 -71.1426 C 63.4277 -71.1426 57.1777 -64.2578 57.1777 -53.8574 Z"/>
  </g>
  <g id="Ultralight-L" transform="matrix(1 0 0 1 487.616 1556)">
   <path d="M 72.1191 25.7812 C 105.566 25.7812 132.91 -1.5625 132.91 -35.0098 C 132.91 -68.5059 105.566 -95.8496 72.1191 -95.8496 C 38.623 -95.8496 11.2793 -68.5059 11.2793 -35.0098 C 11.2793 -1.5625 38.623 25.7812 72.1191 25.7812 Z M 45.459 -7.03125 L 45.459 -37.207 C 45.459 -42.5781 47.8516 -44.8242 52.7344 -44.7754 L 52.7344 -54.3457 C 52.7344 -67.9199 61.6211 -75.4395 72.1191 -75.4395 C 82.5684 -75.4395 91.4551 -67.9199 91.4551 -54.3457 L 91.4551 -44.7754 C 96.3379 -44.8242 98.7305 -42.5781 98.7305 -37.207 L 98.7305 -7.03125 C 98.7305 -1.75781 96.3867 0.488281 91.6016 0.488281 L 52.5879 0.488281 C 47.8027 0.488281 45.459 -1.75781 45.459 -7.03125 Z M 55.6641 -44.7754 L 88.5254 -44.7754 L 88.5254 -54.2969 C 88.5254 -65.2832 81.9336 -72.5098 72.1191 -72.5098 C 62.2559 -72.5098 55.6641 -65.2832 55.6641 -54.2969 Z"/>
  </g>
  <g id="Black-M" transform="matrix(1 0 0 1 2870.97 1126)">
   <path d="M 62.4023 18.5547 C 91.9922 18.5547 116.113 -5.56641 116.113 -35.1562 C 116.113 -64.7461 91.9922 -88.8184 62.4023 -88.8184 C 32.8125 -88.8184 8.74023 -64.7461 8.74023 -35.1562 C 8.74023 -5.56641 32.8125 18.5547 62.4023 18.5547 Z M 44.7754 -17.7246 L 44.7754 -35.5957 C 44.7754 -38.7207 45.8984 -40.625 48.1445 -41.3574 L 48.1445 -45.752 C 48.1445 -55.127 53.9062 -61.4746 62.4023 -61.4746 C 70.9473 -61.4746 76.7578 -55.127 76.7578 -45.752 L 76.7578 -41.3086 C 78.9551 -40.625 80.0781 -38.7207 80.0781 -35.5957 L 80.0781 -17.7246 C 80.0781 -13.4766 78.125 -11.5723 74.2676 -11.5723 L 50.6348 -11.5723 C 46.6797 -11.5723 44.7754 -13.4766 44.7754 -17.7246 Z M 57.4219 -41.6992 L 67.4805 -41.6992 L 67.4805 -45.9961 C 67.4805 -49.9512 65.5762 -52.3438 62.4023 -52.3438 C 59.3262 -52.3438 57.4219 -49.9023 57.4219 -45.9961 Z"/>
  </g>
  <g id="Heavy-M" transform="matrix(1 0 0 1 2575.19 1126)">
   <path d="M 61.5234 17.627 C 90.5273 17.627 114.258 -6.10352 114.258 -35.1562 C 114.258 -64.1602 90.5273 -87.8906 61.4746 -87.8906 C 32.4707 -87.8906 8.74023 -64.1602 8.74023 -35.1562 C 8.74023 -6.10352 32.4707 17.627 61.5234 17.627 Z M 43.8477 -17.5781 L 43.8477 -35.8398 C 43.8477 -38.9648 44.9707 -40.7715 47.3145 -41.4551 L 47.3145 -46.1914 C 47.3145 -55.5664 53.125 -61.9141 61.5234 -61.9141 C 69.9219 -61.9141 75.7324 -55.5664 75.7324 -46.1914 L 75.7324 -41.4062 C 78.0273 -40.7715 79.1504 -38.9648 79.1504 -35.8398 L 79.1504 -17.5781 C 79.1504 -13.4766 77.2949 -11.5723 73.5352 -11.5723 L 49.5117 -11.5723 C 45.7031 -11.5723 43.8477 -13.4766 43.8477 -17.5781 Z M 55.6152 -41.6992 L 67.4316 -41.748 L 67.4316 -46.4844 C 67.4316 -50.9766 65.1367 -53.7598 61.5234 -53.7598 C 57.9102 -53.7598 55.6152 -50.9277 55.6152 -46.4844 Z"/>
  </g>
  <g id="Bold-M" transform="matrix(1 0 0 1 2279.5 1126)">
   <path d="M 60.498 16.6016 C 88.8672 16.6016 112.207 -6.73828 112.207 -35.1562 C 112.207 -63.5742 88.8672 -86.9141 60.4492 -86.9141 C 32.0312 -86.9141 8.74023 -63.5742 8.74023 -35.1562 C 8.74023 -6.73828 32.0801 16.6016 60.498 16.6016 Z M 42.8223 -17.3828 L 42.8223 -36.084 C 42.8223 -39.209 43.9941 -40.9668 46.3867 -41.5527 L 46.3867 -46.6797 C 46.3867 -56.1035 52.1973 -62.3535 60.498 -62.3535 C 68.7988 -62.3535 74.6094 -56.1035 74.6094 -46.6797 L 74.6094 -41.5527 C 77.002 -41.0156 78.1738 -39.2578 78.1738 -36.084 L 78.1738 -17.3828 C 78.1738 -13.4277 76.3672 -11.6211 72.7539 -11.6211 L 48.2422 -11.6211 C 44.5801 -11.6211 42.8223 -13.4277 42.8223 -17.3828 Z M 53.6133 -41.748 L 67.3828 -41.7969 L 67.3828 -47.0703 C 67.3828 -52.0996 64.6973 -55.3711 60.498 -55.3711 C 56.2988 -55.3711 53.6133 -52.0996 53.6133 -47.0703 Z"/>
  </g>
  <g id="Semibold-M" transform="matrix(1 0 0 1 1983.5 1126)">
   <path d="M 59.7656 15.8691 C 87.7441 15.8691 110.791 -7.17773 110.791 -35.1562 C 110.791 -63.1348 87.6953 -86.1816 59.7656 -86.1816 C 31.7871 -86.1816 8.74023 -63.1348 8.74023 -35.1562 C 8.74023 -7.17773 31.7871 15.8691 59.7656 15.8691 Z M 42.0898 -17.2363 L 42.0898 -36.2305 C 42.0898 -39.4043 43.2617 -41.1133 45.752 -41.6016 L 45.752 -47.0215 C 45.752 -56.4941 51.5625 -62.6953 59.7656 -62.6953 C 68.0176 -62.6953 73.7793 -56.4941 73.7793 -47.0215 L 73.7793 -41.6016 C 76.2695 -41.1133 77.4414 -39.4043 77.4414 -36.2305 L 77.4414 -17.2363 C 77.4414 -13.3789 75.7324 -11.6211 72.2168 -11.6211 L 47.3633 -11.6211 C 43.7988 -11.6211 42.0898 -13.3789 42.0898 -17.2363 Z M 52.1973 -41.7969 L 67.3828 -41.7969 L 67.3828 -47.4609 C 67.3828 -52.8809 64.3555 -56.4453 59.7656 -56.4453 C 55.2246 -56.4453 52.1973 -52.8809 52.1973 -47.4609 Z"/>
  </g>
  <g id="Medium-M" transform="matrix(1 0 0 1 1687.3 1126)">
   <path d="M 59.2285 15.332 C 86.9141 15.332 109.766 -7.51953 109.766 -35.1562 C 109.766 -62.793 86.8652 -85.6445 59.1797 -85.6445 C 31.543 -85.6445 8.74023 -62.793 8.74023 -35.1562 C 8.74023 -7.51953 31.5918 15.332 59.2285 15.332 Z M 41.5527 -17.1387 L 41.5527 -36.3281 C 41.5527 -39.502 42.7734 -41.2109 45.3125 -41.6504 L 45.3125 -47.2656 C 45.3125 -56.7871 51.0742 -62.9395 59.2285 -62.9395 C 67.4316 -62.9395 73.1934 -56.7871 73.1934 -47.2656 L 73.1934 -41.6992 C 75.7324 -41.2598 76.9531 -39.5508 76.9531 -36.3281 L 76.9531 -17.1387 C 76.9531 -13.3789 75.2441 -11.6211 71.7773 -11.6211 L 46.7285 -11.6211 C 43.2129 -11.6211 41.5527 -13.3789 41.5527 -17.1387 Z M 51.123 -41.7969 L 67.3828 -41.8457 L 67.3828 -47.7539 C 67.3828 -53.5156 64.1113 -57.2754 59.2285 -57.2754 C 54.3457 -57.2754 51.123 -53.4668 51.123 -47.7539 Z"/>
  </g>
  <g id="Regular-M" transform="matrix(1 0 0 1 1391.3 1126)">
   <path d="M 58.5449 14.6484 C 85.791 14.6484 108.35 -7.95898 108.35 -35.1562 C 108.35 -62.4023 85.7422 -84.9609 58.4961 -84.9609 C 31.2988 -84.9609 8.74023 -62.4023 8.74023 -35.1562 C 8.74023 -7.95898 31.3477 14.6484 58.5449 14.6484 Z M 40.8691 -16.9922 L 40.8691 -36.5234 C 40.8691 -39.6973 42.0898 -41.3086 44.6777 -41.6992 L 44.6777 -47.6074 C 44.6777 -57.1289 50.4395 -63.2812 58.5449 -63.2812 C 66.6504 -63.2812 72.4121 -57.1289 72.4121 -47.6074 L 72.4121 -41.748 C 75 -41.3574 76.2207 -39.7461 76.2207 -36.5234 L 76.2207 -16.9922 C 76.2207 -13.3301 74.6094 -11.6699 71.2402 -11.6699 L 45.8496 -11.6699 C 42.4805 -11.6699 40.8691 -13.3301 40.8691 -16.9922 Z M 49.7559 -41.7969 L 67.334 -41.8457 L 67.334 -48.1445 C 67.334 -54.2969 63.8184 -58.3496 58.5449 -58.3496 C 53.2715 -58.3496 49.7559 -54.2969 49.7559 -48.1445 Z"/>
  </g>
  <g id="Light-M" transform="matrix(1 0 0 1 1095.42 1126)">
   <path d="M 57.7148 13.8184 C 84.5215 13.8184 106.689 -8.30078 106.689 -35.1562 C 106.689 -61.9629 84.5215 -84.1309 57.666 -84.1309 C 30.8594 -84.1309 8.74023 -61.9629 8.74023 -35.1562 C 8.74023 -8.30078 30.9082 13.8184 57.7148 13.8184 Z M 39.1113 -15.8691 L 39.1113 -36.5723 C 39.1113 -40.0879 40.5273 -41.748 43.5059 -41.9922 L 43.5059 -48.3398 C 43.5059 -58.2031 49.6094 -64.2578 57.7148 -64.2578 C 65.8203 -64.2578 71.9238 -58.2031 71.9238 -48.3398 L 71.9238 -42.041 C 74.9023 -41.7969 76.3184 -40.0879 76.3184 -36.5723 L 76.3184 -15.8691 C 76.3184 -12.1094 74.6582 -10.4004 71.1426 -10.4004 L 44.2871 -10.4004 C 40.7715 -10.4004 39.1113 -12.1094 39.1113 -15.8691 Z M 47.7051 -42.0898 L 67.7246 -42.0898 L 67.7246 -48.7305 C 67.7246 -55.5664 63.7207 -60.1562 57.7148 -60.1562 C 51.709 -60.1562 47.7051 -55.5664 47.7051 -48.7305 Z"/>
  </g>
  <g id="Thin-M" transform="matrix(1 0 0 1 799.806 1126)">
   <path d="M 56.6406 12.793 C 82.9102 12.793 104.492 -8.78906 104.492 -35.1074 C 104.492 -61.377 82.9102 -82.959 56.5918 -82.959 C 30.3223 -82.959 8.74023 -61.377 8.74023 -35.1074 C 8.74023 -8.78906 30.3223 12.793 56.6406 12.793 Z M 36.8164 -14.4043 L 36.8164 -36.7188 C 36.8164 -40.5762 38.4766 -42.2852 41.9434 -42.3828 L 41.9434 -49.3652 C 41.9434 -59.5703 48.5352 -65.5273 56.6406 -65.5273 C 64.7461 -65.5273 71.2891 -59.5703 71.2891 -49.3652 L 71.2891 -42.3828 C 74.7559 -42.2852 76.416 -40.5762 76.416 -36.7188 L 76.416 -14.4043 C 76.416 -10.4492 74.6582 -8.69141 71.0449 -8.69141 L 42.1875 -8.69141 C 38.5742 -8.69141 36.8164 -10.4492 36.8164 -14.4043 Z M 44.9707 -42.3828 L 68.2617 -42.4316 L 68.2617 -49.4629 C 68.2617 -57.3242 63.5742 -62.5 56.6406 -62.5 C 49.6582 -62.5 44.9707 -57.3242 44.9707 -49.4629 Z"/>
  </g>
  <g id="Ultralight-M" transform="matrix(1 0 0 1 503.656 1126)">
   <path d="M 56.0547 12.2559 C 82.0801 12.2559 103.369 -9.0332 103.369 -35.0586 C 103.369 -61.084 82.0801 -82.373 56.0547 -82.373 C 30.0293 -82.373 8.74023 -61.084 8.74023 -35.0586 C 8.74023 -9.0332 30.0293 12.2559 56.0547 12.2559 Z M 35.6445 -13.623 L 35.6445 -36.7676 C 35.6445 -40.8203 37.4512 -42.5781 41.1621 -42.5781 L 41.1621 -49.9023 C 41.1621 -60.3027 47.9492 -66.1621 56.0547 -66.1621 C 64.1602 -66.1621 70.9961 -60.3027 70.9961 -49.9023 L 70.9961 -42.5781 C 74.6582 -42.5781 76.5137 -40.8203 76.5137 -36.7676 L 76.5137 -13.623 C 76.5137 -9.57031 74.6582 -7.8125 70.9961 -7.8125 L 41.1133 -7.8125 C 37.4512 -7.8125 35.6445 -9.57031 35.6445 -13.623 Z M 43.6035 -42.5781 L 68.5547 -42.5781 L 68.5547 -49.8535 C 68.5547 -58.2031 63.5254 -63.7207 56.0547 -63.7207 C 48.584 -63.7207 43.6035 -58.2031 43.6035 -49.8535 Z"/>
  </g>
  <g id="Black-S" transform="matrix(1 0 0 1 2884.57 696)">
   <path d="M 48.8281 6.83594 C 71.9727 6.83594 90.8203 -12.0117 90.8203 -35.1562 C 90.8203 -58.3008 71.9727 -77.1484 48.8281 -77.1484 C 25.6836 -77.1484 6.83594 -58.3008 6.83594 -35.1562 C 6.83594 -12.0117 25.6836 6.83594 48.8281 6.83594 Z M 35.0098 -21.5332 L 35.0098 -35.5469 C 35.0098 -37.9883 35.8887 -39.4531 37.6465 -40.0391 L 37.6465 -43.5059 C 37.6465 -50.8301 42.1875 -55.8105 48.8281 -55.8105 C 55.5176 -55.8105 60.0586 -50.8301 60.0586 -43.5059 L 60.0586 -39.9902 C 61.7676 -39.4531 62.6465 -37.9883 62.6465 -35.5469 L 62.6465 -21.5332 C 62.6465 -18.2129 61.1328 -16.6992 58.1055 -16.6992 L 39.5996 -16.6992 C 36.5234 -16.6992 35.0098 -18.2129 35.0098 -21.5332 Z M 44.873 -40.2832 L 52.832 -40.2832 L 52.832 -43.7012 C 52.832 -46.8262 51.3184 -48.7305 48.8281 -48.7305 C 46.3867 -48.7305 44.873 -46.7773 44.873 -43.7012 Z"/>
  </g>
  <g id="Heavy-S" transform="matrix(1 0 0 1 2588.47 696)">
   <path d="M 48.2422 6.20117 C 70.9961 6.20117 89.5996 -12.4023 89.5996 -35.1562 C 89.5996 -57.9102 70.9961 -76.5625 48.1934 -76.5625 C 25.4395 -76.5625 6.83594 -57.9102 6.83594 -35.1562 C 6.83594 -12.4023 25.4395 6.20117 48.2422 6.20117 Z M 34.4727 -21.5332 L 34.4727 -35.6934 C 34.4727 -38.1348 35.3516 -39.5508 37.1582 -40.0879 L 37.1582 -43.75 C 37.1582 -51.0742 41.6504 -56.0059 48.2422 -56.0059 C 54.834 -56.0059 59.3262 -51.0742 59.3262 -43.75 L 59.3262 -40.0391 C 61.084 -39.5508 61.9629 -38.1348 61.9629 -35.6934 L 61.9629 -21.5332 C 61.9629 -18.3105 60.498 -16.8457 57.5684 -16.8457 L 38.916 -16.8457 C 35.9375 -16.8457 34.4727 -18.3105 34.4727 -21.5332 Z M 43.7012 -40.2832 L 52.7832 -40.2832 L 52.7832 -44.043 C 52.7832 -47.4609 51.0254 -49.6094 48.2422 -49.6094 C 45.459 -49.6094 43.7012 -47.4121 43.7012 -44.043 Z"/>
  </g>
  <g id="Bold-S" transform="matrix(1 0 0 1 2292.44 696)">
   <path d="M 47.5586 5.51758 C 69.873 5.51758 88.2324 -12.8418 88.2324 -35.1562 C 88.2324 -57.5195 69.873 -75.8789 47.5098 -75.8789 C 25.1953 -75.8789 6.83594 -57.5195 6.83594 -35.1562 C 6.83594 -12.8418 25.1953 5.51758 47.5586 5.51758 Z M 33.9355 -21.5332 L 33.9355 -35.8887 C 33.9355 -38.2812 34.8145 -39.6484 36.6211 -40.0879 L 36.6211 -44.043 C 36.6211 -51.3672 41.0645 -56.2988 47.5586 -56.2988 C 54.0527 -56.2988 58.4961 -51.3672 58.4961 -44.043 L 58.4961 -40.0879 C 60.3027 -39.6484 61.1816 -38.2812 61.1816 -35.8887 L 61.1816 -21.5332 C 61.1816 -18.457 59.8145 -17.041 56.9824 -17.041 L 38.1348 -17.041 C 35.3027 -17.041 33.9355 -18.457 33.9355 -21.5332 Z M 42.4316 -40.2832 L 52.6855 -40.2832 L 52.6855 -44.3848 C 52.6855 -48.1934 50.6836 -50.5859 47.5586 -50.5859 C 44.4336 -50.5859 42.4316 -48.1445 42.4316 -44.3848 Z"/>
  </g>
  <g id="Semibold-S" transform="matrix(1 0 0 1 1996.2 696)">
   <path d="M 47.0703 5.0293 C 69.0918 5.0293 87.3047 -13.1348 87.3047 -35.2051 C 87.3047 -57.2266 69.0918 -75.4395 47.0215 -75.4395 C 25 -75.4395 6.83594 -57.2266 6.83594 -35.2051 C 6.83594 -13.1348 25.0488 5.0293 47.0703 5.0293 Z M 33.5449 -21.5332 L 33.5449 -35.9863 C 33.5449 -38.3789 34.375 -39.6973 36.2305 -40.1367 L 36.2305 -44.2383 C 36.2305 -51.5625 40.625 -56.4453 47.0703 -56.4453 C 53.5156 -56.4453 57.959 -51.5625 57.959 -44.2383 L 57.959 -40.1367 C 59.7656 -39.7461 60.6445 -38.3789 60.6445 -35.9863 L 60.6445 -21.5332 C 60.6445 -18.5547 59.3262 -17.1875 56.543 -17.1875 L 37.5977 -17.1875 C 34.8633 -17.1875 33.5449 -18.5547 33.5449 -21.5332 Z M 41.5039 -40.2832 L 52.6367 -40.332 L 52.6367 -44.6289 C 52.6367 -48.6816 50.4395 -51.2695 47.0703 -51.2695 C 43.7012 -51.2695 41.5039 -48.6328 41.5039 -44.6289 Z"/>
  </g>
  <g id="Medium-S" transform="matrix(1 0 0 1 1699.83 696)">
   <path d="M 46.7285 4.6875 C 68.5547 4.6875 86.6211 -13.3789 86.6211 -35.2051 C 86.6211 -56.9824 68.5059 -75.0977 46.6797 -75.0977 C 24.8535 -75.0977 6.83594 -56.9824 6.83594 -35.2051 C 6.83594 -13.3789 24.9023 4.6875 46.7285 4.6875 Z M 33.2031 -21.5332 L 33.2031 -36.084 C 33.2031 -38.4277 34.082 -39.7461 35.9375 -40.1367 L 35.9375 -44.3848 C 35.9375 -51.709 40.332 -56.5918 46.7285 -56.5918 C 53.125 -56.5918 57.5195 -51.709 57.5195 -44.3848 L 57.5195 -40.1855 C 59.3262 -39.7949 60.2051 -38.4766 60.2051 -36.084 L 60.2051 -21.5332 C 60.2051 -18.6035 58.9355 -17.2363 56.25 -17.2363 L 37.207 -17.2363 C 34.5215 -17.2363 33.2031 -18.6035 33.2031 -21.5332 Z M 40.8691 -40.2832 L 52.5879 -40.332 L 52.5879 -44.8242 C 52.5879 -49.0234 50.2441 -51.8066 46.7285 -51.8066 C 43.1641 -51.8066 40.8691 -49.0234 40.8691 -44.8242 Z"/>
  </g>
  <g id="Regular-S" transform="matrix(1 0 0 1 1403.58 696)">
   <path d="M 46.2402 4.19922 C 67.7734 4.19922 85.6934 -13.6719 85.6934 -35.2051 C 85.6934 -56.7383 67.7246 -74.6094 46.1914 -74.6094 C 24.707 -74.6094 6.83594 -56.7383 6.83594 -35.2051 C 6.83594 -13.6719 24.7559 4.19922 46.2402 4.19922 Z M 32.8125 -21.4844 L 32.8125 -36.1816 C 32.8125 -38.5254 33.6914 -39.7949 35.5469 -40.1855 L 35.5469 -44.5312 C 35.5469 -51.8555 39.8926 -56.7383 46.2402 -56.7383 C 52.5879 -56.7383 56.9336 -51.8555 56.9336 -44.5312 L 56.9336 -40.2344 C 58.8379 -39.8438 59.668 -38.5742 59.668 -36.1816 L 59.668 -21.4844 C 59.668 -18.7012 58.4473 -17.3828 55.8594 -17.3828 L 36.6699 -17.3828 C 34.082 -17.3828 32.8125 -18.7012 32.8125 -21.4844 Z M 39.9414 -40.2832 L 52.5391 -40.332 L 52.5391 -45.0684 C 52.5391 -49.5117 50.0488 -52.4902 46.2402 -52.4902 C 42.4805 -52.4902 39.9414 -49.5117 39.9414 -45.0684 Z"/>
  </g>
  <g id="Light-S" transform="matrix(1 0 0 1 1107.6 696)">
   <path d="M 45.5078 3.51562 C 66.6992 3.51562 84.2285 -14.0137 84.2285 -35.1562 C 84.2285 -56.3477 66.6504 -73.877 45.5078 -73.877 C 24.3164 -73.877 6.83594 -56.3477 6.83594 -35.1562 C 6.83594 -14.0137 24.3652 3.51562 45.5078 3.51562 Z M 31.2988 -20.5078 L 31.2988 -36.2793 C 31.2988 -38.8672 32.3242 -40.1855 34.5215 -40.4297 L 34.5215 -45.2148 C 34.5215 -52.832 39.1602 -57.5684 45.5078 -57.5684 C 51.8555 -57.5684 56.543 -52.832 56.543 -45.2148 L 56.543 -40.4785 C 58.7402 -40.1855 59.7656 -38.916 59.7656 -36.2793 L 59.7656 -20.5078 C 59.7656 -17.5781 58.4473 -16.2598 55.7617 -16.2598 L 35.2539 -16.2598 C 32.5684 -16.2598 31.2988 -17.5781 31.2988 -20.5078 Z M 38.1348 -40.4785 L 52.8809 -40.5273 L 52.8809 -45.5566 C 52.8809 -50.6836 49.9512 -54.0527 45.5078 -54.0527 C 41.1133 -54.0527 38.1348 -50.6836 38.1348 -45.5566 Z"/>
  </g>
  <g id="Thin-S" transform="matrix(1 0 0 1 811.867 696)">
   <path d="M 44.5801 2.58789 C 65.2832 2.58789 82.2754 -14.4043 82.2754 -35.1562 C 82.2754 -55.8594 65.2344 -72.8516 44.5312 -72.8516 C 23.8281 -72.8516 6.83594 -55.8594 6.83594 -35.1562 C 6.83594 -14.4043 23.877 2.58789 44.5801 2.58789 Z M 29.248 -19.1895 L 29.248 -36.377 C 29.248 -39.3066 30.5176 -40.6738 33.1543 -40.7715 L 33.1543 -46.0938 C 33.1543 -54.0527 38.2324 -58.6914 44.5801 -58.6914 C 50.9277 -58.6914 55.957 -54.0527 55.957 -46.0938 L 55.957 -40.7715 C 58.5938 -40.6738 59.8633 -39.3066 59.8633 -36.377 L 59.8633 -19.1895 C 59.8633 -16.1133 58.4961 -14.7461 55.6641 -14.7461 L 33.4473 -14.7461 C 30.6152 -14.7461 29.248 -16.1133 29.248 -19.1895 Z M 35.7422 -40.7715 L 53.3691 -40.7715 L 53.3691 -46.2402 C 53.3691 -52.1973 49.8535 -56.1523 44.5801 -56.1523 C 39.3066 -56.1523 35.7422 -52.1973 35.7422 -46.2402 Z"/>
  </g>
  <g id="Ultralight-S" transform="matrix(1 0 0 1 515.644 696)">
   <path d="M 44.043 2.09961 C 64.502 2.09961 81.2988 -14.6484 81.2988 -35.1074 C 81.2988 -55.5664 64.502 -72.3145 44.043 -72.3145 C 23.584 -72.3145 6.83594 -55.5664 6.83594 -35.1074 C 6.83594 -14.6484 23.584 2.09961 44.043 2.09961 Z M 28.2227 -18.5059 L 28.2227 -36.4258 C 28.2227 -39.5508 29.5898 -40.918 32.4219 -40.918 L 32.4219 -46.582 C 32.4219 -54.6875 37.6953 -59.2773 44.043 -59.2773 C 50.3906 -59.2773 55.6641 -54.6875 55.6641 -46.582 L 55.6641 -40.918 C 58.4961 -40.918 59.9121 -39.5508 59.9121 -36.4258 L 59.9121 -18.5059 C 59.9121 -15.3809 58.4961 -14.0137 55.6152 -14.0137 L 32.4707 -14.0137 C 29.6387 -14.0137 28.2227 -15.3809 28.2227 -18.5059 Z M 34.5215 -40.918 L 53.6133 -40.918 L 53.6133 -46.582 C 53.6133 -52.9785 49.7559 -57.2266 44.043 -57.2266 C 38.3301 -57.2266 34.5215 -52.9785 34.5215 -46.582 Z"/>
  </g>
 </g>
</svg>
